<mxfile host="app.diagrams.net" agent="Mozilla/5.0 (Windows NT 10.0; Win64; x64) AppleWebKit/537.36 (KHTML, like Gecko) Chrome/134.0.0.0 Safari/537.36" version="26.1.1">
  <diagram name="Page-1" id="5ybP3fVxR_O7OG9nowo5">
    <mxGraphModel dx="954" dy="566" grid="1" gridSize="10" guides="1" tooltips="1" connect="1" arrows="1" fold="1" page="1" pageScale="1" pageWidth="827" pageHeight="1169" math="0" shadow="0" adaptiveColors="auto">
      <root>
        <mxCell id="0" />
        <mxCell id="1" parent="0" />
        <mxCell id="vFmSvjuSKfPeqINILVZh-62" value="Admin" style="whiteSpace=wrap;strokeWidth=2;fontStyle=1;fontSize=12;fillColor=#647687;fontColor=#ffffff;strokeColor=#314354;" vertex="1" parent="1">
          <mxGeometry x="166" y="20" width="105" height="54" as="geometry" />
        </mxCell>
        <mxCell id="vFmSvjuSKfPeqINILVZh-63" value="Member" style="whiteSpace=wrap;strokeWidth=2;fontStyle=1;fontSize=12;fillColor=#647687;fontColor=#ffffff;strokeColor=#314354;" vertex="1" parent="1">
          <mxGeometry x="110" y="147" width="117" height="54" as="geometry" />
        </mxCell>
        <mxCell id="vFmSvjuSKfPeqINILVZh-64" value="System" style="whiteSpace=wrap;strokeWidth=2;fontStyle=1;fontSize=12;fillColor=#647687;fontColor=#ffffff;strokeColor=#314354;" vertex="1" parent="1">
          <mxGeometry x="240" y="274" width="110" height="54" as="geometry" />
        </mxCell>
        <mxCell id="vFmSvjuSKfPeqINILVZh-65" value="Adds" style="curved=1;startArrow=none;endArrow=block;exitX=0;exitY=0.81;entryX=0;entryY=0.04;rounded=0;fontStyle=1;strokeWidth=2;fontSize=12;fillColor=#647687;strokeColor=#314354;" edge="1" parent="1" source="vFmSvjuSKfPeqINILVZh-62" target="vFmSvjuSKfPeqINILVZh-63">
          <mxGeometry relative="1" as="geometry">
            <Array as="points">
              <mxPoint x="20" y="111" />
            </Array>
          </mxGeometry>
        </mxCell>
        <mxCell id="vFmSvjuSKfPeqINILVZh-66" value="Approves" style="curved=1;startArrow=none;endArrow=block;exitX=0;exitY=1;entryX=0.23;entryY=0;rounded=0;fontStyle=1;strokeWidth=2;fontSize=12;fillColor=#647687;strokeColor=#314354;" edge="1" parent="1" source="vFmSvjuSKfPeqINILVZh-62" target="vFmSvjuSKfPeqINILVZh-63">
          <mxGeometry relative="1" as="geometry">
            <Array as="points">
              <mxPoint x="95" y="111" />
            </Array>
          </mxGeometry>
        </mxCell>
        <mxCell id="vFmSvjuSKfPeqINILVZh-67" value="Registers" style="curved=1;startArrow=none;endArrow=block;exitX=0.5;exitY=1;entryX=0.01;entryY=0;rounded=0;fontStyle=1;strokeWidth=2;fontSize=12;fillColor=#647687;strokeColor=#314354;" edge="1" parent="1" source="vFmSvjuSKfPeqINILVZh-63" target="vFmSvjuSKfPeqINILVZh-64">
          <mxGeometry relative="1" as="geometry">
            <Array as="points">
              <mxPoint x="168" y="238" />
            </Array>
          </mxGeometry>
        </mxCell>
        <mxCell id="vFmSvjuSKfPeqINILVZh-68" value="Validates" style="curved=1;startArrow=none;endArrow=block;exitX=1.01;exitY=0.18;entryX=1;entryY=0.72;rounded=0;fontStyle=1;strokeWidth=2;fontSize=12;fillColor=#647687;strokeColor=#314354;" edge="1" parent="1" source="vFmSvjuSKfPeqINILVZh-64" target="vFmSvjuSKfPeqINILVZh-62">
          <mxGeometry relative="1" as="geometry">
            <Array as="points">
              <mxPoint x="497" y="238" />
              <mxPoint x="497" y="111" />
            </Array>
          </mxGeometry>
        </mxCell>
        <mxCell id="vFmSvjuSKfPeqINILVZh-69" value="Assigns Membership Type" style="curved=1;startArrow=none;endArrow=block;exitX=0.59;exitY=1;entryX=0.76;entryY=0;rounded=0;fontStyle=1;strokeWidth=2;fontSize=12;fillColor=#647687;strokeColor=#314354;" edge="1" parent="1" source="vFmSvjuSKfPeqINILVZh-62" target="vFmSvjuSKfPeqINILVZh-63">
          <mxGeometry relative="1" as="geometry">
            <Array as="points">
              <mxPoint x="242" y="111" />
            </Array>
          </mxGeometry>
        </mxCell>
        <mxCell id="vFmSvjuSKfPeqINILVZh-70" value="Assigns Interests" style="curved=1;startArrow=none;endArrow=block;exitX=1;exitY=0.81;entryX=1;entryY=0.22;rounded=0;fontStyle=1;strokeWidth=2;fontSize=12;fillColor=#647687;strokeColor=#314354;" edge="1" parent="1" source="vFmSvjuSKfPeqINILVZh-62" target="vFmSvjuSKfPeqINILVZh-63">
          <mxGeometry relative="1" as="geometry">
            <Array as="points">
              <mxPoint x="415" y="111" />
            </Array>
          </mxGeometry>
        </mxCell>
      </root>
    </mxGraphModel>
  </diagram>
</mxfile>
